<?xml version="1.0" encoding="UTF-8"?>
<svg version="1.1" xmlns="http://www.w3.org/2000/svg" width="41" height="39">
<path d="M0 0 C13.53 0 27.06 0 41 0 C41 12.87 41 25.74 41 39 C27.47 39 13.94 39 0 39 C0 26.13 0 13.26 0 0 Z " fill="#7242FA" transform="translate(0,0)"/>
<path d="M0 0 C-0.33 12.54 -0.66 25.08 -1 38 C-5 36 -5 36 -6 33 C-6.22642956 28.86971894 -6.22823569 24.73931774 -6.24023438 20.60327148 C-6.2499498 18.57298966 -6.28099209 16.5437167 -6.3125 14.51367188 C-6.32023438 12.59071289 -6.32023438 12.59071289 -6.328125 10.62890625 C-6.3374707 9.45400635 -6.34681641 8.27910645 -6.35644531 7.06860352 C-5.82931281 2.53057037 -4.80842289 0 0 0 Z " fill="#265DFB" transform="translate(7,0)"/>
<path d="M0 0 C0.99 0 1.98 0 3 0 C2.67 12.54 2.34 25.08 2 38 C1.01 37.67 0.02 37.34 -1 37 C-1 1 -1 1 0 0 Z " fill="#375CFB" transform="translate(4,0)"/>
<path d="M0 0 C1.32 0.33 2.64 0.66 4 1 C3.01 2.485 3.01 2.485 2 4 C1.69016149 7.03797724 1.69016149 7.03797724 1.734375 10.49609375 C1.73179687 11.77677734 1.72921875 13.05746094 1.7265625 14.37695312 C1.73075195 15.043479 1.73494141 15.71000488 1.73925781 16.39672852 C1.74994421 18.42690045 1.73936321 20.45618398 1.7265625 22.48632812 C1.72914063 23.76830078 1.73171875 25.05027344 1.734375 26.37109375 C1.73663086 27.54599365 1.73888672 28.72089355 1.74121094 29.93139648 C2.09091302 34.07800546 3.08659829 36.08659829 6 39 C4.02 39 2.04 39 0 39 C0 26.13 0 13.26 0 0 Z " fill="#FDFEFE" transform="translate(0,0)"/>
<path d="M0 0 C2.64 0 5.28 0 8 0 C8 0.66 8 1.32 8 2 C6.35 2 4.7 2 3 2 C3 3.32 3 4.64 3 6 C4.32 6 5.64 6 7 6 C7 6.66 7 7.32 7 8 C5.68 8 4.36 8 3 8 C3 9.65 3 11.3 3 13 C2.01 13 1.02 13 0 13 C0 8.71 0 4.42 0 0 Z " fill="#F9FAFE" transform="translate(22,13)"/>
<path d="M0 0 C2.64 0 5.28 0 8 0 C8 0.66 8 1.32 8 2 C6.35 2 4.7 2 3 2 C3 3.32 3 4.64 3 6 C4.32 6 5.64 6 7 6 C7 6.66 7 7.32 7 8 C5.68 8 4.36 8 3 8 C3 9.65 3 11.3 3 13 C2.01 13 1.02 13 0 13 C0 8.71 0 4.42 0 0 Z " fill="#FBF5FE" transform="translate(13,13)"/>
<path d="M0 0 C1.68762851 1.6454378 3.3540349 3.31288577 5 5 C5 5.33 5 5.66 5 6 C3.02 6 1.04 6 -1 6 C-0.67 4.02 -0.34 2.04 0 0 Z " fill="#F1F5FE" transform="translate(1,33)"/>
</svg>
